<svg id="Capa_1" data-name="Capa 1" xmlns="http://www.w3.org/2000/svg" viewBox="0 0 350.3 292.2"><defs><style>.cls-1{fill:#ed664c;}.cls-1,.cls-2{stroke:#000;stroke-miterlimit:10;stroke-width:9px;}.cls-2{fill:#fdc75b;}</style></defs><path class="cls-1" d="M345.3,126.5v38.2l-27.9,2.7a103.8,103.8,0,0,1-14.6,34.7l18,21.8-26.9,26.9-21.8-18a101.18,101.18,0,0,1-34.7,14.6l-2.7,28.3h-42V195.4h0a54.7,54.7,0,1,0,0-99.4V15.65h42L237.4,44a103.8,103.8,0,0,1,34.7,14.6l21.8-18,26.6,26.9-18,21.8A101.18,101.18,0,0,1,317.1,124Z" transform="translate(0.5 0.5)"/><path class="cls-1" d="M192.7,195.3V236H32.2A28.22,28.22,0,0,1,4,207.8V141.5a39.56,39.56,0,0,1,12.3-28.6l11.3-10.7v-.4H190.7a2,2,0,0,1,2,2ZM105,192.5V153.7a2,2,0,0,0-2-2H44.5a2,2,0,0,0-2,2v38.8a2,2,0,0,0,2,2H103A2,2,0,0,0,105,192.5Z" transform="translate(0.5 0.5)"/><path class="cls-2" d="M192.7,95.9v4a2,2,0,0,1-2,2H164.16a2,2,0,0,1-2-1.9,48.5,48.5,0,0,0-96.92,0,2,2,0,0,1-2,1.9H26.4L56.3,21.1A26.16,26.16,0,0,1,80.9,4H192.8V95.9Z" transform="translate(0.5 0.5)"/><path class="cls-2" d="M160.15,101.9H67.25a2,2,0,0,1-2-2v-.1a48.5,48.5,0,0,1,96.9,0,2,2,0,0,1-1.9,2.1h-.1Z" transform="translate(0.5 0.5)"/><rect class="cls-2" x="43" y="152.2" width="62.5" height="42.8" rx="2"/><path class="cls-2" d="M78.3,236.5V259a28.22,28.22,0,0,1-28.2,28.2H32.2A28.22,28.22,0,0,1,4,259V209.9a26.16,26.16,0,0,0,26.12,26.2H78.3Z" transform="translate(0.5 0.5)"/></svg>