<svg height="511pt" viewBox="-48 1 511 511.999" width="511pt" xmlns="http://www.w3.org/2000/svg"><path d="m413.71875 362.246094-19.96875-66.402344c-1.191406-3.964844-5.371094-6.210938-9.34375-5.023438-3.964844 1.195313-6.214844 5.375-5.023438 9.34375l19.96875 66.402344c3.386719 11.257813 1.761719 22.496094-4.457031 30.835938-5.945312 7.972656-15.589843 12.542968-26.449219 12.542968h-1.789062v-3.652343h3.964844c8.75 0 15.867187-7.105469 15.867187-15.84375v-40.691407c0-8.738281-7.117187-15.847656-15.867187-15.847656h-3.964844v-36.972656c0-8.078125-5.273438-13.941406-12.535156-13.941406-2.589844 0-5.203125.75-7.769532 2.226562l-47.148437 27.152344c.226563-1.230469.363281-2.496094.363281-3.792969v-11.332031c0-9.699219-6.648437-17.859375-15.648437-20.289062 9.015625-6.121094 14.949219-16.425782 14.949219-28.089844v-6.269532c1.898437-.8125 3.765624-1.679687 5.597656-2.621093l47.0625.003906c.105468 0 .210937 0 .316406-.003906 5.515625-.214844 10.429688 3.273437 12.007812 8.527343l5.308594 17.652344c1.191406 3.96875 5.371094 6.214844 9.34375 5.023438 3.964844-1.191406 6.214844-5.375 5.023438-9.34375l-5.3125-17.652344c-3.539063-11.769531-14.546875-19.644531-26.832032-19.203125l-25.984374-.003906c11.835937-11.402344 20.5625-26.085938 24.726562-42.605469h8.386719c13.6875 0 24.824219-11.015625 24.824219-24.550781v-18.054688c0-9.300781-5.257813-17.40625-12.988282-21.574219v-51.417968c0-27.496094-22.46875-49.863282-50.085937-49.863282-8.214844 0-15.972657 1.984376-22.816407 5.492188-13.671874-14.148438-34.777343-22.40625-60.601562-22.40625-42.851562 0-77.714844 34.699219-77.714844 77.347656v40.851563c-7.734375 4.164062-12.992187 12.273437-12.992187 21.574219v18.050781c0 13.539062 11.140625 24.550781 24.828125 24.550781h8.386718c3.109376 12.347656 8.777344 23.664062 16.375 33.359375-33.070312 2.742187-59.625 28.324219-63.214843 60.605469-9.226563 1.023437-16.683594 7.949218-18.433594 16.878906l-13.890625-7.996094c-2.5625-1.480468-5.175781-2.226562-7.765625-2.226562-7.261719 0-12.535156 5.863281-12.535156 13.941406v36.972656h-2.109375c-8.75 0-15.867188 7.109375-15.867188 15.847656v40.6875c0 8.738282 7.117188 15.847657 15.867188 15.847657h2.109375v12.574219c0 8.417968 5.507812 17.941406 12.816406 22.152343l117.765625 67.824219c3.53125 2.035156 8.074219 3.15625 12.804688 3.15625 4.722656 0 9.269531-1.121094 12.800781-3.152344l117.765625-67.828125c5.578125-3.214843 10.097656-9.523437 11.929687-16.074219h2.675781c15.644532 0 29.667969-6.769531 38.472657-18.574218 9.089843-12.1875 11.566406-28.269532 6.800781-44.125zm-129.152344-64.996094v11.332031c0 2.496094-1.558594 4.644531-3.773437 5.566407.234375-2.234376.367187-4.503907.367187-6.800782v-15.492187c2.019532.996093 3.40625 3.039062 3.40625 5.394531zm-6.816406-34.511719c-1.558594-4.71875-3.625-9.21875-6.140625-13.429687 4.171875-.328125 8.265625-.945313 12.257813-1.84375v1.40625c0 5.480468-2.363282 10.40625-6.117188 13.867187zm80.757812-132.515625c5.417969 0 9.824219 4.285156 9.824219 9.550782v18.050781c0 5.269531-4.40625 9.550781-9.824219 9.550781h-5.9375c.183594-2.332031.277344-4.6875.277344-7.066406v-30.085938zm-38.25-98.308594c19.351563 0 35.089844 15.640626 35.089844 34.863282v48.445312h-2.5v-14.351562c0-8.542969-6.96875-15.492188-15.53125-15.492188h-22.753906v-18.878906c0-11.894531-2.8125-22.613281-7.972656-31.808594 4.203125-1.777344 8.816406-2.777344 13.667968-2.777344zm-149.292968 135.460938c-5.417969 0-9.828125-4.285156-9.828125-9.550781v-18.050781c0-5.265626 4.410156-9.550782 9.828125-9.550782h5.660156v30.082032c0 2.378906.097656 4.734374.277344 7.070312zm5.660156-66.503906v14.351562h-2.496094v-37.875c0-34.378906 28.132813-62.347656 62.714844-62.347656 17.945312 0 33.9375 4.773438 45.035156 13.441406 11.566406 9.039063 17.683594 22.199219 17.683594 38.058594v18.878906h-107.40625c-8.5625 0-15.53125 6.949219-15.53125 15.492188zm15 59.433594v-59.433594c0-.273438.238281-.492188.53125-.492188h145.15625c.296875 0 .535156.21875.535156.492188v59.433594c0 40.964843-32.796875 74.289062-73.113281 74.289062-1.734375 0-3.453125-.070312-5.15625-.195312-11.492187-10.78125-26.722656-17.734376-43.570313-18.769532-14.953124-13.609375-24.382812-33.367187-24.382812-55.324218zm9.996094 70.171874h10.003906c9.457031 0 18.355469 2.371094 26.117188 6.527344l-23.566407 23.507813c-2.273437 2.269531-5.976562 2.269531-8.253906 0-1.113281-1.109375-1.5-2.382813-1.625-3.257813-.40625-2.808594-2.363281-5.144531-5.054687-6.039062-2.691407-.898438-5.65625-.199219-7.664063 1.804687l-7.386719 7.371094c-2.277344 2.269531-5.980468 2.273437-8.257812.003906-1.117188-1.113281-1.5-2.386719-1.625-3.261719-.410156-2.808593-2.363282-5.144531-5.054688-6.039062-2.695312-.898438-5.660156-.199219-7.667968 1.804688l-7.386719 7.371093c-.617188.617188-1.355469 1.046875-2.136719 1.328125 8.632812-18.34375 27.59375-31.121094 49.558594-31.121094zm-54.535156 53.339844c0-2.390625.179687-4.742187.492187-7.050781 6.171875.738281 12.582031-1.253906 17.214844-5.875l.214843-.214844c.109376.113281.21875.226563.332032.335938 8.117187 8.101562 21.324218 8.097656 29.441406 0l.21875-.214844c.105469.109375.214844.222656.328125.332031 4.058594 4.054688 9.390625 6.078125 14.722656 6.078125s10.664063-2.023437 14.722657-6.074219l25.230468-25.171874c9.972656 9.671874 16.15625 23.066406 16.15625 37.855468v23.53125c0 11.125-3.679687 21.414063-9.890625 29.753906l-27.6875 15.949219c-1.25.71875-3.234375 1.148438-5.3125 1.148438s-4.0625-.429688-5.3125-1.148438l-70.609375-40.667969c-.167968-1.65625-.261718-3.335937-.261718-5.035156zm-18.402344 13.433594c0-2.355469 1.386718-4.394531 3.402344-5.394531v11.738281l-3.402344-1.960938zm-50.90625 94.042969c-.480469 0-.867188-.378907-.867188-.847657v-40.6875c0-.46875.386719-.847656.867188-.847656h20.917968c.476563 0 .863282.378906.863282.847656v40.6875c0 .46875-.386719.847657-.863282.847657zm22.414062 36.730469c-2.679687-1.542969-5.304687-6.078126-5.304687-9.15625v-12.574219h3.808593c7.378907 0 13.578126-5.066407 15.34375-11.894531 11.769532 15.527343 18.410157 33.824218 19.066407 52.582031zm251.460938-9.15625c0 3.078124-2.625 7.613281-5.300782 9.152343l-115.582031 66.570313v-9.589844c0-4.144531-3.355469-7.5-7.5-7.5-4.140625 0-7.5 3.355469-7.5 7.5v9.589844l-67.75-39.019532c1.617188-30.140624-10.078125-59.886718-32.53125-82.28125-.304687-.300781-.625-.582031-.929687-.878906v-22.652344c0-8.738281-7.117188-15.847656-15.863282-15.847656h-3.808593v-34.433594l115.582031 66.570313c1.585938.914063 3.382812 1.628906 5.300781 2.15625v81.796875c0 4.144531 3.359375 7.5 7.5 7.5 4.144531 0 7.5-3.355469 7.5-7.5v-81.796875c1.917969-.523437 3.714844-1.242187 5.300781-2.15625l115.582032-66.570313v34.433594h-1.949219c-8.75 0-15.867187 7.109375-15.867187 15.847656v16.988282c-1.929688-3.367188-5.429688-5.398438-9.496094-5.398438-1.328125 0-2.683594.21875-4.03125.652344l-13.457032 4.320312-5.359374-8.367187c-2.023438-3.148437-5.386719-4.957031-9.230469-4.957031-1.925781 0-3.875.457031-5.785157 1.347656-4.078124 1.902344-7.566406 5.648438-9.328124 10.023438l-7.550782 18.816406-16.824218 10.296875c-3.941407 2.40625-7.039063 6.472656-8.289063 10.882812-1.707031 6.050781.449219 11.804688 5.382813 14.324219l8.847656 4.496094-2.378906 14.996094c-1.011719 6.359374 2.269531 11.839843 7.960937 13.320312.941406.246094 1.925781.371094 2.925781.371094 1.914063 0 3.855469-.449219 5.789063-1.347656 1.765625-.832032 3.484375-2.046876 4.964843-3.515626l14.570313-14.453124 13.617187.808593c2.113282.128907 4.332032-.324219 6.46875-1.316406 2.300782-1.074219 4.445313-2.75 6.207032-4.851563 3.367187-4.019531 4.894531-9.019531 4.082031-13.371093l-2.664063-14.289063 11.929688-17.191406c.648438-.933594 1.195312-1.898438 1.648438-2.882812v10.984374c0 8.738282 7.117187 15.847657 15.867187 15.847657h1.953125v12.574219zm-46.714844-19.664063 3.175781 17.039063c-.074219.246093-.292969.746093-.773437 1.316406-.316406.382812-.632813.640625-.878906.796875l-16.371094-.972657c-2.15625-.144531-4.214844.65625-5.730469 2.160157l-11.726563 11.636719 1.75-11.035157c.507813-3.210937-1.109374-6.386719-4.007812-7.859375l-10.542969-5.359375c.238281-.261719.503907-.488281.765625-.648437l18.949219-11.59375c1.375-.84375 2.445313-2.105469 3.046875-3.605469l8.472656-21.117187c.035156-.09375.082032-.1875.125-.277344l6.144532 9.585937c1.835937 2.863281 5.367187 4.136719 8.609374 3.09375l10.253907-3.289062-10.050781 14.480469c-1.144532 1.644531-1.578126 3.679687-1.210938 5.648437zm44.765625-7.910156c-.480469 0-.867187-.378907-.867187-.847657v-40.6875c0-.46875.386718-.847656.867187-.847656h20.917969c.476562 0 .863281.378906.863281.847656v40.6875c0 .46875-.386719.847657-.863281.847657zm0 0"/><path d="m221.765625 155.757812c4.144531 0 7.5-3.359374 7.5-7.5v-10.242187c0-4.144531-3.355469-7.5-7.5-7.5-4.140625 0-7.5 3.355469-7.5 7.5v10.242187c0 4.140626 3.359375 7.5 7.5 7.5zm0 0"/><path d="m307.703125 155.757812c4.144531 0 7.5-3.359374 7.5-7.5v-10.242187c0-4.144531-3.355469-7.5-7.5-7.5-4.140625 0-7.5 3.355469-7.5 7.5v10.242187c0 4.140626 3.359375 7.5 7.5 7.5zm0 0"/><path d="m262.789062 173.1875h8.890626c4.144531 0 7.5-3.359375 7.5-7.5 0-4.144531-3.355469-7.5-7.5-7.5h-6.390626v-18.070312c0-4.140626-3.355468-7.5-7.5-7.5-4.140624 0-7.5 3.359374-7.5 7.5v20.570312c0 6.890625 5.609376 12.5 12.5 12.5zm0 0"/><path d="m264.734375 228c19.828125 0 35.957031-17.183594 35.957031-38.300781 0-6.34375-5.1875-11.5-11.566406-11.5h-48.777344c-6.378906 0-11.566406 5.15625-11.566406 11.5 0 21.117187 16.128906 38.300781 35.953125 38.300781zm20.71875-34.800781c-1.519531 11.195312-10.234375 19.800781-20.71875 19.800781-10.480469 0-19.191406-8.605469-20.714844-19.800781zm0 0"/><path d="m172.617188 316.941406c4.144531 0 7.5-3.359375 7.5-7.5v-4.449218c0-4.140626-3.355469-7.5-7.5-7.5-4.140626 0-7.5 3.359374-7.5 7.5v4.449218c0 4.140625 3.359374 7.5 7.5 7.5zm0 0"/><path d="m240.632812 316.941406c4.144532 0 7.5-3.359375 7.5-7.5v-4.449218c0-4.140626-3.355468-7.5-7.5-7.5-4.140624 0-7.5 3.359374-7.5 7.5v4.449218c0 4.140625 3.359376 7.5 7.5 7.5zm0 0"/><path d="m206.625 327.0625h3.804688c4.144531 0 7.5-3.355469 7.5-7.5 0-4.140625-3.355469-7.5-7.5-7.5h-.105469v-2.992188c0-4.140624-3.359375-7.5-7.5-7.5-4.144531 0-7.5 3.359376-7.5 7.5v5.492188c-.003907 6.894531 5.070312 12.5 11.300781 12.5zm0 0"/><path d="m88.792969 244c0-4.144531-3.355469-7.5-7.5-7.5h-63.292969c-1.355469 0-2.5-1.144531-2.5-2.5v-80c0-1.355469 1.144531-2.5 2.5-2.5h105c1.355469 0 2.5 1.144531 2.5 2.5v49.585938c0 2.570312 1.320312 4.964843 3.496094 6.339843l9.433594 5.957031-9.433594 5.957032c-2.175782 1.371094-3.496094 3.765625-3.496094 6.339844v5.820312c0 1.355469-1.144531 2.5-2.5 2.5h-6.707031c-4.140625 0-7.5 3.355469-7.5 7.5s3.359375 7.5 7.5 7.5h6.707031c9.648438 0 17.5-7.851562 17.5-17.5v-1.683594l11.757812-7.421875c3.332032-2.101562 5.242188-5.386719 5.242188-9.011719s-1.910156-6.910156-5.242188-9.011718l-11.757812-7.421875v-45.449219c0-9.648438-7.851562-17.5-17.5-17.5h-105c-9.652344 0-17.5 7.851562-17.5 17.5v80c0 9.648438 7.847656 17.5 17.5 17.5h63.292969c4.144531 0 7.5-3.355469 7.5-7.5zm0 0"/><path d="m34.605469 177.179688h72.785156c4.140625 0 7.5-3.355469 7.5-7.5 0-4.144532-3.359375-7.5-7.5-7.5h-72.785156c-4.140625 0-7.5 3.355468-7.5 7.5 0 4.140624 3.359375 7.5 7.5 7.5zm0 0"/><path d="m114.890625 192.5c0-4.144531-3.359375-7.5-7.5-7.5h-72.785156c-4.140625 0-7.5 3.355469-7.5 7.5s3.359375 7.5 7.5 7.5h72.785156c4.140625 0 7.5-3.355469 7.5-7.5zm0 0"/><path d="m34.605469 207.820312c-4.140625 0-7.5 3.355469-7.5 7.5 0 4.144532 3.359375 7.5 7.5 7.5h42.394531c4.140625 0 7.5-3.355468 7.5-7.5 0-4.144531-3.359375-7.5-7.5-7.5zm0 0"/></svg>